<svg id="Layer_1" data-name="Layer 1" xmlns="http://www.w3.org/2000/svg" viewBox="0 0 410 410"><defs><style>.cls-1{fill:#fe830c;}.cls-2{fill:#261300;}.cls-3{fill:none;stroke:#fe830c;stroke-miterlimit:10;stroke-width:10px;}</style></defs><title>ai</title><circle class="cls-1" cx="205" cy="205" r="200"/><path class="cls-2" d="M234.93,238.64l4.78,30.63H218.79l5.44-30.47c1.48-8.56,3.62-23.71,5.27-33.59h.66C231.31,215.09,233.29,229.74,234.93,238.64ZM450,250h0c0,110.5-89.58,200.08-200.08,200.08h0C139.58,449.92,50,360.33,50,250h0C50,139.5,139.58,49.92,250.08,49.92h0C360.42,49.92,450,139.5,450,250ZM276.27,325.09,247.78,178.37H213.52L181.74,325.09h27.67L216,291.5h26.35l6.26,33.59Zm42-106.54H289.77V325.09h28.49Zm0-28.33c0-9.55-6.26-15.48-14.66-15.48-7.9,0-14.82,5.93-14.65,15.48-.17,9.22,6.25,15.48,14.16,15.48C312,205.7,318.42,199.44,318.26,190.22Z" transform="translate(-45 -45)"/><circle class="cls-3" cx="205" cy="205" r="200"/></svg>