<svg id="Layer_1" data-name="Layer 1" xmlns="http://www.w3.org/2000/svg" viewBox="0 0 410 410"><defs><style>.cls-1,.cls-2{fill:#fff;}.cls-1{stroke:#265787;stroke-miterlimit:10;stroke-width:10px;}.cls-3{fill:#265787;}.cls-4{fill:#ea7600;}</style></defs><title>blender</title><circle class="cls-1" cx="205" cy="205" r="200"/><path class="cls-2" d="M219.08,263.63c.9-16,8.71-30.08,20.54-40a69.55,69.55,0,0,1,88.3,0c11.83,10,19.61,24.08,20.54,40,.89,16.39-5.71,31.69-17.24,43a67.73,67.73,0,0,1-47.41,18.76c-18.84,0-35.66-7.22-47.41-18.76-11.57-11.32-18.16-26.53-17.23-42.93Z" transform="translate(-45 -45)"/><path class="cls-3" d="M254.49,261.67A29,29,0,0,1,265,241.09a35.76,35.76,0,0,1,45.38,0A29.1,29.1,0,0,1,321,261.67a28.69,28.69,0,0,1-8.86,22.11,35.6,35.6,0,0,1-48.72,0,28.46,28.46,0,0,1-8.86-22.06Z" transform="translate(-45 -45)"/><path class="cls-4" d="M202.38,279A60.08,60.08,0,0,0,205,293.37a75.43,75.43,0,0,0,16.32,28.27,84.8,84.8,0,0,0,28.58,20.54,93.21,93.21,0,0,0,75-.13,85.06,85.06,0,0,0,28.57-20.62,75.9,75.9,0,0,0,16.33-28.36,71.13,71.13,0,0,0,2.56-31.53A72.76,72.76,0,0,0,362,233.06a78.37,78.37,0,0,0-19-20.93v0l-76.86-59.06c-.07-.05-.12-.1-.2-.15-5-3.88-13.55-3.86-19.06,0s-6.25,10.42-1.26,14.5l0,0,32.09,26.09-97.71.11h-.13c-8.08,0-15.85,5.3-17.37,12s3.91,12.5,12.33,12.5v0l49.51-.09-88.59,67.74-.34.25c-8.34,6.39-11,17-5.78,23.71s16.68,6.86,25.1,0l48.21-39.51a74.47,74.47,0,0,0-.65,8.51Zm124.19,17.85a54.25,54.25,0,0,1-38.91,15.89c-15.06,0-29-5.64-39-15.76a46.73,46.73,0,0,1-10.64-16.63,43.32,43.32,0,0,1-2.44-18.59A43.77,43.77,0,0,1,241,244.3a49.12,49.12,0,0,1,11.81-14.07,56.16,56.16,0,0,1,69.7-.08,48.53,48.53,0,0,1,11.81,14,43.64,43.64,0,0,1,2.9,36.09,46.39,46.39,0,0,1-10.64,16.67Z" transform="translate(-45 -45)"/></svg>