<svg id="Layer_1" data-name="Layer 1" xmlns="http://www.w3.org/2000/svg" viewBox="0 0 410 410"><defs><style>.cls-1{fill:#525967;stroke:#fff;stroke-miterlimit:10;stroke-width:10px;}.cls-2{fill:#0acf83;}.cls-3{fill:#a259ff;}.cls-4{fill:#f24e1e;}.cls-5{fill:#ff7262;}.cls-6{fill:#1abcfe;}</style></defs><title>figma</title><circle class="cls-1" cx="205" cy="205" r="200"/><g id="ads_manager" data-name="ads manager"><path id="path0_fill" data-name="path0 fill" class="cls-2" d="M213.4,362.5A37.58,37.58,0,0,0,251,324.92V286.61H213.4a37.58,37.58,0,0,0,0,75.16Z" transform="translate(-45 -45)"/><path id="path1_fill" data-name="path1 fill" class="cls-3" d="M174.84,250a37.58,37.58,0,0,1,38.53-36.61H250v73.21H213.4A37.58,37.58,0,0,1,174.84,250Z" transform="translate(-45 -45)"/><path id="path1_fill-2" data-name="path1 fill-2" class="cls-4" d="M174.84,174.85a37.58,37.58,0,0,1,37.81-37.35H250V213.4H213.4a37.58,37.58,0,0,1-38.56-36.57Q174.81,175.84,174.84,174.85Z" transform="translate(-45 -45)"/><path id="path2_fill" data-name="path2 fill" class="cls-5" d="M250,137.51h36.6a37.95,37.95,0,1,1,0,75.89H250Z" transform="translate(-45 -45)"/><path id="path3_fill" data-name="path3 fill" class="cls-6" d="M325.16,250A37.58,37.58,0,1,1,286.6,213.4,37.59,37.59,0,0,1,325.16,250Z" transform="translate(-45 -45)"/></g></svg>