<svg id="Layer_1" data-name="Layer 1" xmlns="http://www.w3.org/2000/svg" viewBox="0 0 410 410"><defs><style>.cls-1{fill:#fff;stroke:#fff;stroke-miterlimit:10;stroke-width:10px;}</style></defs><title>nextjs</title><circle class="cls-1" cx="205" cy="205" r="200"/><path d="M191.9,5.11c-.86.08-3.6.35-6.06.55C129,10.78,75.81,41.43,42.11,88.54A197.83,197.83,0,0,0,6.8,175.91C5.2,186.9,5,190.14,5,205s.2,18.14,1.8,29.12c10.87,75.11,64.32,138.21,136.81,161.58a211,211,0,0,0,42.23,8.76c6.06.67,32.26.67,38.32,0,26.86-3,49.62-9.62,72.06-21.07,3.44-1.76,4.11-2.23,3.64-2.62-.31-.23-15-19.9-32.57-43.67l-32-43.2-40.08-59.31C173.17,202,155,175.37,154.87,175.37s-.31,26.31-.39,58.48c-.12,56.34-.15,58.61-.86,59.93a7.07,7.07,0,0,1-3.44,3.56c-1.25.63-2.35.75-8.25.75h-6.76l-1.8-1.14a7.21,7.21,0,0,1-2.62-2.85l-.82-1.76L130,214l.12-78.42,1.21-1.53a10.83,10.83,0,0,1,2.9-2.38c1.6-.78,2.23-.86,9-.86,8,0,9.31.31,11.38,2.58.59.62,22.29,33.31,48.25,72.68s61.47,93.12,78.9,119.51l31.68,48,1.6-1.06a205.07,205.07,0,0,0,41.09-36A199,199,0,0,0,403.2,234.16c1.6-11,1.8-14.23,1.8-29.12s-.2-18.14-1.8-29.13c-10.87-75.1-64.32-138.2-136.81-161.58a210.32,210.32,0,0,0-41.64-8.71c-3.76-.4-29.6-.83-32.85-.51Zm81.88,121a7.91,7.91,0,0,1,4,4.61c.31,1,.39,22.75.31,71.74l-.12,70.29-12.39-19-12.44-19V183.62c0-33,.16-51.61.39-52.51a8,8,0,0,1,3.88-4.93c1.6-.82,2.19-.89,8.32-.89,5.79,0,6.81.07,8.1.78Z"/></svg>