<svg id="Layer_1" data-name="Layer 1" xmlns="http://www.w3.org/2000/svg" viewBox="0 0 410 410"><defs><style>.cls-1,.cls-3{fill:#31648c;}.cls-1,.cls-4{stroke:#fff;}.cls-1{stroke-miterlimit:10;stroke-width:10px;}.cls-2{fill:#fff;}.cls-4{fill:none;stroke-linecap:round;stroke-linejoin:round;stroke-width:0;}</style></defs><title>postgresql</title><circle class="cls-1" cx="205" cy="205" r="200"/><path d="M355.4,267.29c-5.6-4.26-9.13-2.64-12.9-1.85a59.06,59.06,0,0,1-11.32,1.37,216.62,216.62,0,0,0,23.14-55A119.7,119.7,0,0,0,358.56,184c.12-8.2-.54-15.46-5.46-21.75-15.36-19.62-37-25-53.66-25.23-.51,0-1,0-1.55,0v0A95.68,95.68,0,0,0,272,140.79l-.6.19a102.19,102.19,0,0,0-16.1-1.55,53.74,53.74,0,0,0-28.31,7c-7.57-2.63-23.27-7.16-39.83-6.26-11.52.63-24.11,4.14-33.43,14s-14.21,25.07-13.17,45.78c.28,5.72,1.91,15,4.61,27.11a317.79,317.79,0,0,0,11.24,39.1c4.73,12.9,9.92,24.49,18,32.36,4.05,3.94,9.62,7.26,16.2,7a20.84,20.84,0,0,0,12.38-5.2,14.82,14.82,0,0,0,5.33,4.24,26,26,0,0,0,6.4,2.51,44.48,44.48,0,0,0,18.35.94,34.82,34.82,0,0,0,8.24-2.54c.1,3.11.22,6.15.34,9.23.39,9.75.64,18.76,3.56,26.66.47,1.29,1.76,7.94,6.85,13.81s15,9.54,26.39,7.11c8-1.71,18.19-4.8,24.95-14.43s9.7-23.15,10.29-45.28c.15-1.2.33-2.22.52-3.17l1.59.14H316c8.54.39,17.81-.82,25.55-4.42,6.85-3.17,12-6.39,15.82-12.08a12.12,12.12,0,0,0,2.26-6.06A12.33,12.33,0,0,0,355.4,267.29Zm-3.52,11.88c-2.41,3.61-7.14,7-13.22,9.84-5.37,2.51-13.08,3.82-19.92,3.89a30.45,30.45,0,0,1-9.28-1.06l-.17-.07c-1,10-3.41,29.69-5,38.69-1.24,7.25-3.42,13-7.57,17.32s-10,6.92-17.9,8.61c-9.78,2.1-16.9-.16-21.5-4s-6.69-9-8-12.12a35.49,35.49,0,0,1-1.75-8.72c-.43-3.75-.75-8.33-1-13.5q-.44-11.88-.28-23.76a28.88,28.88,0,0,1-14.62,7.16,38.49,38.49,0,0,1-15.73-.85,21.6,21.6,0,0,1-4.9-1.89,9.09,9.09,0,0,1-4.14-3.74,5.28,5.28,0,0,1-.54-3.59,5.76,5.76,0,0,1,2.05-3.12c1.87-1.51,4.34-2.36,8.06-3.13,6.77-1.4,9.13-2.35,10.57-3.49,1.23-1,2.61-2.95,5.06-5.85l0-.39A27.85,27.85,0,0,1,219.66,272c-1.42,1.49-8.63,9.11-17.43,19.7-3.7,4.42-7.78,7-12.1,7.15s-8.21-2-11.52-5.2c-6.62-6.43-11.9-17.5-16.51-30a314.16,314.16,0,0,1-11-38.3c-2.66-11.87-4.24-21.43-4.46-26-1-19.6,3.59-32.82,11.46-41.15s18.66-11.49,29.18-12.09c18.88-1.08,36.81,5.5,40.44,6.91,7-4.75,16-7.7,27.23-7.51a69.25,69.25,0,0,1,15.83,2l.19-.09a64.37,64.37,0,0,1,7-2,90.12,90.12,0,0,1,19.5-2.36v0c15.8-.15,36,4.28,50.48,22.8,3.26,4.17,4.23,10.25,4.12,17.75a116.5,116.5,0,0,1-4,26.27,211.15,211.15,0,0,1-27.28,61.09,7.1,7.1,0,0,0,1.48.81c2.73,1.13,9,2.1,21.38-.45,3.13-.66,5.41-1.1,7.79.71a4.9,4.9,0,0,1,1.72,4A6.71,6.71,0,0,1,351.88,279.17Z" transform="translate(-45 -45)"/><path class="cls-2" d="M351.38,272c-2.38-1.81-4.66-1.37-7.79-.71-12.42,2.55-18.65,1.58-21.38.45a7.1,7.1,0,0,1-1.48-.81A211.15,211.15,0,0,0,348,209.85a116.5,116.5,0,0,0,4-26.27c.11-7.5-.86-13.58-4.12-17.75-14.49-18.52-34.68-23-50.48-22.8v0a90.12,90.12,0,0,0-19.5,2.36,64.37,64.37,0,0,0-7,2l-.19.09a69.25,69.25,0,0,0-15.83-2c-11.24-.19-20.25,2.76-27.23,7.51-3.63-1.41-21.56-8-40.44-6.91-10.52.6-21.31,3.76-29.18,12.09s-12.45,21.55-11.46,41.15c.22,4.62,1.8,14.18,4.46,26a314.16,314.16,0,0,0,11,38.3c4.61,12.5,9.89,23.57,16.51,30,3.31,3.21,7.21,5.38,11.52,5.2s8.4-2.73,12.1-7.15c8.8-10.59,16-18.21,17.43-19.7a27.85,27.85,0,0,0,12.52,3.37l0,.39c-2.45,2.9-3.83,4.87-5.06,5.85-1.44,1.14-3.8,2.09-10.57,3.49-3.72.77-6.19,1.62-8.06,3.13a5.76,5.76,0,0,0-2.05,3.12,5.28,5.28,0,0,0,.54,3.59,9.09,9.09,0,0,0,4.14,3.74,21.6,21.6,0,0,0,4.9,1.89,38.49,38.49,0,0,0,15.73.85,28.88,28.88,0,0,0,14.62-7.16q-.15,11.88.28,23.76c.22,5.17.54,9.75,1,13.5a35.49,35.49,0,0,0,1.75,8.72c1.26,3.14,3.36,8.26,8,12.12s11.72,6.13,21.5,4c7.89-1.69,13.76-4.29,17.9-8.61s6.33-10.07,7.57-17.32c1.56-9,3.94-28.7,5-38.69l.17.07a30.45,30.45,0,0,0,9.28,1.06c6.84-.07,14.55-1.38,19.92-3.89,6.08-2.81,10.81-6.23,13.22-9.84A6.71,6.71,0,0,0,353.1,276,4.9,4.9,0,0,0,351.38,272ZM297.5,149.34h1.38c14.33.11,31.43,4.22,44.07,20.38,1.61,2.06,2.87,7,2.78,13.75a111.39,111.39,0,0,1-3.84,24.79A205.34,205.34,0,0,1,317,265c-.35-.45-.69-.9-1.07-1.35,4.46-7.41,5.29-15,5-21.84-.35-7.32-1.81-14-1.63-19.73.25-7.87,2.29-13.46,2-21.71a1.33,1.33,0,0,0,.06-.12,4.14,4.14,0,0,0,.11-1.36,12.91,12.91,0,0,0-.38-2.22,43.31,43.31,0,0,0-2.12-6.22,79.85,79.85,0,0,0-10.66-18.08,70.72,70.72,0,0,0-26.84-21.19A82.37,82.37,0,0,1,297.5,149.34Zm17.1,92.76c.26,5.35-.18,10.48-2.66,15.71a31.88,31.88,0,0,1-1.68-3.41,53.28,53.28,0,0,0-2.75-5.23c-1.25-2.25-2.8-5-4.4-8.1-3.2-6.15-6.61-13.55-8.26-20.17s-1.4-12,1.26-15c1.88-2.15,5.47-3.8,11.87-3.88a54,54,0,0,1,7,.45c-.14,6.19-1.72,11.41-2,19.42C312.74,228.71,314.28,235.48,314.6,242.1ZM197.37,287.63c-3,3.61-5.47,4.78-7.51,4.88s-4.27-.92-6.85-3.42c-5.13-5-10.52-15.54-15-27.66a311.34,311.34,0,0,1-10.75-37.49c-2.62-11.66-4.14-21.47-4.32-25-.93-18.5,3.31-29.68,9.75-36.5s15.43-9.57,24.94-10.12c1.18-.07,2.38-.1,3.57-.1h0c1.19,0,2.38,0,3.58.09A106.88,106.88,0,0,1,222,157.68a54.45,54.45,0,0,0-12.45,19.89,93.13,93.13,0,0,0-5.57,31.79h0v.28c0,2.08.36,5.41.47,10.42a117.38,117.38,0,0,1-1,18.61,32.92,32.92,0,0,0,11,29.66Q205.59,277.71,197.37,287.63Zm12.3-48.07a123.47,123.47,0,0,0,1.06-19.63c-.11-4.9-.39-8.24-.44-9.61l.2-.19a22.41,22.41,0,0,1,3.29-2.15,44,44,0,0,1,10.86-4.22,26.29,26.29,0,0,1,5.8-.7,13.78,13.78,0,0,1,4.93.79c2.83,1.09,4.88,3,5.92,7.83,6.33,29.33-1.19,36.84-5,47.14A92.71,92.71,0,0,0,232.84,269C219.11,269,207.42,255.66,209.67,239.56Zm36.18,45.83c-4.58,6.43-10,8.91-15.13,9.79a32.88,32.88,0,0,1-13.14-.75,15.47,15.47,0,0,1-3.41-1.34,2.22,2.22,0,0,1-.65-.5,18,18,0,0,1,4.34-1.35c7-1.44,10.52-2.59,13.23-4.74s3.85-4.46,7.13-8.14c1.4-1.55,2.12-1.72,2.62-1.77h.2v0a6.09,6.09,0,0,1,1.92.57,7,7,0,0,1,3.12,3.7A4.86,4.86,0,0,1,245.85,285.39Zm59.51-9.52c-1.3,2.38-1.9,5.51-1.72,9.58-.41,5.39-3.84,34.07-5.54,43.95-1.14,6.6-2.92,10.92-5.9,14s-7.45,5.25-14.68,6.8c-8.34,1.79-12.91,0-16.09-2.67s-4.95-6.63-6.15-9.64a36.19,36.19,0,0,1-1.35-7.09c-.4-3.53-.72-8-.94-13.06q-.66-17.58-.12-35.2a3.23,3.23,0,0,0-.19-1.19,13,13,0,0,0-.67-2.68,12.36,12.36,0,0,0-6.63-7.34,10.26,10.26,0,0,0-5.08-1,8.81,8.81,0,0,0-1.22.25A88.57,88.57,0,0,1,242.2,261c3.2-8.61,11.89-20,5.26-50.68-1.38-6.39-5.19-10.6-9.81-12.39s-9.71-1.45-14.43-.36a48.44,48.44,0,0,0-12.51,4.86l-.12.07a83,83,0,0,1,4.83-22.73c2.75-7.3,6.94-14.43,13.18-19.64,6.06-5,14-8.4,25.17-8.42v0h1.09c23.67.38,39,12.38,48.45,24.48a73.52,73.52,0,0,1,9.81,16.61c.55,1.32.75,2.14,1.08,3.13-11.17-1.13-18.61.88-22.85,5.74-4.78,5.47-4.51,13.23-2.64,20.73s5.48,15.21,8.79,21.56c1.66,3.17,3.24,6,4.5,8.26q1.28,2.24,2.42,4.55a42.07,42.07,0,0,0,6.27,10.35c.79,1,1.56,2,2.29,3.06a18.21,18.21,0,0,0-2.42.87A11.11,11.11,0,0,0,305.36,275.87ZM336,283.26c-3.93,1.83-11.32,3.23-17.33,3.3a26.44,26.44,0,0,1-7.32-.77,4.61,4.61,0,0,1-1.4-.66c-.15-3.26.36-5.18.95-6.27a4.26,4.26,0,0,1,2.25-2c1-.43,2.1-.63,3.49-1.13h0a12.23,12.23,0,0,0,3.12,1.88c4.55,1.88,12,2.6,25.08-.11h0A37.5,37.5,0,0,1,336,283.26Z" transform="translate(-45 -45)"/><polygon class="cls-2" points="146.22 107.24 146.22 107.24 146.23 107.24 146.22 107.24"/><path class="cls-3" d="M308.3,172.33A79.85,79.85,0,0,1,319,190.41a43.31,43.31,0,0,1,2.12,6.22,12.91,12.91,0,0,1,.38,2.22,4.14,4.14,0,0,1-.11,1.36,1.33,1.33,0,0,1-.06.12c.28,8.25-1.76,13.84-2,21.71-.18,5.71,1.28,12.41,1.63,19.73.34,6.88-.49,14.43-5,21.84.38.45.72.9,1.07,1.35a205.34,205.34,0,0,0,24.86-56.71,111.39,111.39,0,0,0,3.84-24.79c.09-6.78-1.17-11.69-2.78-13.75-12.64-16.16-29.74-20.27-44.07-20.38H297.5a82.37,82.37,0,0,0-16,1.8A70.72,70.72,0,0,1,308.3,172.33Z" transform="translate(-45 -45)"/><path class="cls-3" d="M313,270.24c-.73-1.05-1.5-2.07-2.29-3.06a42.07,42.07,0,0,1-6.27-10.35q-1.14-2.31-2.42-4.55c-1.26-2.26-2.84-5.09-4.5-8.26-3.31-6.35-6.92-14.06-8.79-21.56s-2.14-15.26,2.64-20.73c4.24-4.86,11.68-6.87,22.85-5.74-.33-1-.53-1.81-1.08-3.13a73.52,73.52,0,0,0-9.81-16.61c-9.46-12.1-24.78-24.1-48.45-24.48h-1.09v0c-11.13,0-19.11,3.39-25.17,8.42-6.24,5.21-10.43,12.34-13.18,19.64a83,83,0,0,0-4.83,22.73l.12-.07a48.44,48.44,0,0,1,12.51-4.86c4.72-1.09,9.82-1.43,14.43.36s8.43,6,9.81,12.39c6.63,30.67-2.06,42.07-5.26,50.68a88.57,88.57,0,0,0-3.12,9.54,8.81,8.81,0,0,1,1.22-.25,10.26,10.26,0,0,1,5.08,1,12.36,12.36,0,0,1,6.63,7.34,13,13,0,0,1,.67,2.68,3.23,3.23,0,0,1,.19,1.19q-.54,17.61.12,35.2c.22,5.07.54,9.53.94,13.06a36.19,36.19,0,0,0,1.35,7.09c1.2,3,3,7,6.15,9.64s7.75,4.46,16.09,2.67c7.23-1.55,11.7-3.71,14.68-6.8s4.76-7.42,5.9-14c1.7-9.88,5.13-38.56,5.54-43.95-.18-4.07.42-7.2,1.72-9.58a11.11,11.11,0,0,1,5.2-4.76A18.21,18.21,0,0,1,313,270.24Z" transform="translate(-45 -45)"/><path class="cls-3" d="M314.94,202.43a54,54,0,0,0-7-.45c-6.4.08-10,1.73-11.87,3.88-2.66,3.07-2.92,8.43-1.26,15s5.06,14,8.26,20.17c1.6,3.08,3.15,5.85,4.4,8.1a53.28,53.28,0,0,1,2.75,5.23,31.88,31.88,0,0,0,1.68,3.41c2.48-5.23,2.92-10.36,2.66-15.71-.32-6.62-1.86-13.39-1.63-20.25C313.22,213.84,314.8,208.62,314.94,202.43Zm-5.78,4.39h0a2.2,2.2,0,0,1-.33,1.27,6.82,6.82,0,0,1-4.67,3.41,5.57,5.57,0,0,1-3.86-1,5.65,5.65,0,0,1-1.22-1.12,2.45,2.45,0,0,1-.6-1.19,1.62,1.62,0,0,1,.4-1.21,3.47,3.47,0,0,1,1.1-.84,10.52,10.52,0,0,1,3.51-1.1A13.51,13.51,0,0,1,305,205v0h.47a7.9,7.9,0,0,1,1.7.21,4,4,0,0,1,1.3.51,1.55,1.55,0,0,1,.7,1v.08Z" transform="translate(-45 -45)"/><line class="cls-4" x1="264.16" y1="161.82" x2="264.15" y2="161.82"/><path class="cls-3" d="M236.28,258.82c3.82-10.3,11.34-17.81,5-47.14-1-4.8-3.09-6.74-5.92-7.83a13.78,13.78,0,0,0-4.93-.79,26.29,26.29,0,0,0-5.8.7A44,44,0,0,0,213.78,208a22.41,22.41,0,0,0-3.29,2.15l-.2.19c.05,1.37.33,4.71.44,9.61a123.47,123.47,0,0,1-1.06,19.63c-2.25,16.1,9.44,29.43,23.17,29.45A92.71,92.71,0,0,1,236.28,258.82ZM228.15,212a6.7,6.7,0,0,1-1.11-1.54,2.65,2.65,0,0,1-.39-1.67,2.4,2.4,0,0,1,1.8-1.83,8.08,8.08,0,0,1,2.89-.38v0a12.1,12.1,0,0,1,1.56.12,10.46,10.46,0,0,1,3.71,1.15,4.31,4.31,0,0,1,1.25,1,2.12,2.12,0,0,1,.51,1.6,2.83,2.83,0,0,1-.71,1.45,6.32,6.32,0,0,1-1.35,1.23,6.07,6.07,0,0,1-4.22,1.06A6.86,6.86,0,0,1,228.15,212Z" transform="translate(-45 -45)"/><path class="cls-2" d="M308.46,205.7a4,4,0,0,0-1.3-.51,7.9,7.9,0,0,0-1.7-.21H305v0a13.51,13.51,0,0,0-1.51.12,10.52,10.52,0,0,0-3.51,1.1,3.47,3.47,0,0,0-1.1.84,1.62,1.62,0,0,0-.4,1.21,2.45,2.45,0,0,0,.6,1.19,5.65,5.65,0,0,0,1.22,1.12,5.57,5.57,0,0,0,3.86,1,6.82,6.82,0,0,0,4.67-3.41,2.2,2.2,0,0,0,.33-1.27v-.08A1.55,1.55,0,0,0,308.46,205.7Z" transform="translate(-45 -45)"/><path class="cls-2" d="M236.32,213.11a6.32,6.32,0,0,0,1.35-1.23,2.83,2.83,0,0,0,.71-1.45,2.12,2.12,0,0,0-.51-1.6,4.31,4.31,0,0,0-1.25-1,10.46,10.46,0,0,0-3.71-1.15,12.1,12.1,0,0,0-1.56-.12v0a8.08,8.08,0,0,0-2.89.38,2.4,2.4,0,0,0-1.8,1.83,2.65,2.65,0,0,0,.39,1.67,6.7,6.7,0,0,0,1.11,1.54,6.86,6.86,0,0,0,3.95,2.15A6.07,6.07,0,0,0,236.32,213.11Z" transform="translate(-45 -45)"/><path class="cls-3" d="M319.79,277.58a12.23,12.23,0,0,1-3.12-1.88h0c-1.39.5-2.53.7-3.49,1.13a4.26,4.26,0,0,0-2.25,2c-.59,1.09-1.1,3-.95,6.27a4.61,4.61,0,0,0,1.4.66,26.44,26.44,0,0,0,7.32.77c6-.07,13.4-1.47,17.33-3.3a37.5,37.5,0,0,0,8.88-5.79h0C331.75,280.18,324.34,279.46,319.79,277.58Z" transform="translate(-45 -45)"/><path class="cls-3" d="M243,277.18a6.09,6.09,0,0,0-1.92-.57v0h-.2c-.5.05-1.22.22-2.62,1.77-3.28,3.68-4.43,6-7.13,8.14s-6.22,3.3-13.23,4.74a18,18,0,0,0-4.34,1.35,2.22,2.22,0,0,0,.65.5,15.47,15.47,0,0,0,3.41,1.34,32.88,32.88,0,0,0,13.14.75c5.17-.88,10.55-3.36,15.13-9.79a4.86,4.86,0,0,0,.23-4.51A7,7,0,0,0,243,277.18Z" transform="translate(-45 -45)"/><path class="cls-3" d="M203.42,238.68a117.38,117.38,0,0,0,1-18.61c-.11-5-.47-8.34-.47-10.42v-.28h0a93.13,93.13,0,0,1,5.57-31.79A54.45,54.45,0,0,1,222,157.68a106.88,106.88,0,0,0-27.15-5.35c-1.2-.06-2.39-.09-3.58-.09s-2.39,0-3.57.1c-9.51.55-18.51,3.31-24.94,10.12S152,180.46,153,199c.18,3.51,1.7,13.32,4.32,25A311.34,311.34,0,0,0,168,261.43c4.46,12.12,9.85,22.67,15,27.66,2.58,2.5,4.82,3.5,6.85,3.42s4.5-1.27,7.51-4.88q8.2-9.92,17-19.29A32.92,32.92,0,0,1,203.42,238.68Z" transform="translate(-45 -45)"/></svg>