<svg id="Layer_1" data-name="Layer 1" xmlns="http://www.w3.org/2000/svg" viewBox="0 0 410 410"><defs><style>.cls-1{fill:#fff;stroke:#fff;stroke-miterlimit:10;stroke-width:10px;}.cls-2{fill:#06b6d4;}</style></defs><title>tailwind</title><circle class="cls-1" cx="205" cy="205" r="200"/><path class="cls-2" d="M370.06,192.39a8.33,8.33,0,0,0-10.22,2.83c-5.28,7.54-10.55,12.07-15.61,14.39A23.07,23.07,0,0,1,328,210.7c-6.11-1.64-10.84-6.43-18.26-14.5l-.24-.26c-5.6-6.09-12.43-13.52-21.76-19.28-9.69-6-21.75-10-37.73-10-17.1,0-31.8,4.61-43.34,14.5s-18.95,24.12-23.11,41.94a8.33,8.33,0,0,0,14.94,6.67c5.28-7.54,10.55-12.07,15.61-14.39a23.08,23.08,0,0,1,16.24-1.09c6.11,1.64,10.84,6.43,18.27,14.5l.24.26c5.59,6.09,12.42,13.52,21.76,19.28,9.69,6,21.74,10,37.72,10,17.1,0,31.8-4.61,43.34-14.5s18.95-24.12,23.11-41.94A8.32,8.32,0,0,0,370.06,192.39Z" transform="translate(-45 -45)"/><path class="cls-2" d="M311.73,267.39a8.33,8.33,0,0,0-10.22,2.83c-5.28,7.54-10.55,12.07-15.61,14.39a23.13,23.13,0,0,1-16.24,1.09c-6.11-1.64-10.84-6.43-18.27-14.5l-.24-.26c-5.59-6.09-12.42-13.52-21.76-19.28-9.69-6-21.74-10-37.72-10-17.1,0-31.8,4.61-43.34,14.5s-19,24.12-23.11,41.94a8.33,8.33,0,0,0,14.94,6.67c5.28-7.54,10.55-12.07,15.61-14.4A23.13,23.13,0,0,1,172,289.3c6.11,1.63,10.84,6.43,18.26,14.5l.24.26c5.6,6.09,12.43,13.52,21.76,19.28,9.69,6,21.75,10,37.73,10,17.1,0,31.8-4.61,43.34-14.5s19-24.12,23.11-41.94A8.34,8.34,0,0,0,311.73,267.39Z" transform="translate(-45 -45)"/></svg>