<svg id="Layer_1" data-name="Layer 1" xmlns="http://www.w3.org/2000/svg" viewBox="0 0 410 410"><defs><style>.cls-1{fill:#ef473b;stroke:#fff;stroke-miterlimit:10;stroke-width:10px;}.cls-2{fill:#fff;}</style></defs><title>git</title><circle class="cls-1" cx="205" cy="205" r="200"/><path class="cls-2" d="M315.78,211.2a36.68,36.68,0,0,0-19,5.08l-41.37-42.67a36.73,36.73,0,0,0,5.67-18.86,37.1,37.1,0,0,0-36.48-37.63,36.71,36.71,0,0,0-18.79,5L161,75.92,144,86l48.49,49A36.57,36.57,0,0,0,187,153.61a37,37,0,0,0,27.24,36.17l-1.77,113.8a37,37,0,1,0,18.53.28l1.77-113.8A36.65,36.65,0,0,0,242,186.4l41.58,42.89a36.72,36.72,0,0,0-5.41,18.39,37.06,37.06,0,1,0,37.63-36.48Z" transform="translate(-45 -45)"/></svg>