<svg id="Layer_1" data-name="Layer 1" xmlns="http://www.w3.org/2000/svg" viewBox="0 0 410 410"><defs><style>.cls-1{fill:#f0db4f;stroke:#fff;stroke-miterlimit:10;stroke-width:10px;}.cls-2{fill:#323330;}</style></defs><title>javascript</title><circle class="cls-1" cx="205" cy="205" r="200"/><g id="Layer_1-2" data-name="Layer 1"><path class="cls-2" d="M179.18,157.79h41.35V274.24c0,52.28-25.19,70.82-65.11,70.82-10,0-22.34-1.43-30.42-4.28L129.75,307a69.45,69.45,0,0,0,21.39,3.33c17.59,0,28.52-8.08,28.52-36.12l-.48-116.45Z" transform="translate(-45 -45)"/><path class="cls-2" d="M257.13,299.43c10.93,5.7,28.52,11.41,46.1,11.41,19,0,29-8.08,29-20.44,0-11.41-8.55-18.06-30.89-25.67-30.42-10.93-50.85-28-50.85-55.13,0-30.89,26.61-54.66,69.86-54.66,20.91,0,36.12,4.28,47.06,9.51l-9.51,33.27a89.4,89.4,0,0,0-38-8.56c-18.06,0-26.62,8.56-26.62,17.59,0,11.88,10,17.11,34.22,26.14C359.79,244.77,375,261.88,375,288c0,30.9-23.29,57-74.14,57-20.92,0-41.83-5.71-52.29-11.41Z" transform="translate(-45 -45)"/></g></svg>