<svg id="Layer_1" data-name="Layer 1" xmlns="http://www.w3.org/2000/svg" viewBox="0 0 410 410"><defs><style>.cls-1{fill:#001d26;stroke:#31c5f0;stroke-miterlimit:10;stroke-width:10px;}.cls-2{fill:#31c5f0;}</style></defs><title>ps</title><circle class="cls-1" cx="205" cy="205" r="200"/><path class="cls-2" d="M305.08,232.34c-10.63,0-14.43,5.31-14.43,9.87,0,4.94,2.28,8.36,16.71,15.58,21.27,10.25,28.11,20.13,28.11,34.57,0,21.65-16.71,33.43-39.13,33.43-11.77,0-22-2.28-27.73-5.7a2.3,2.3,0,0,1-1.14-2.28V298.05c0-1.52.76-1.9,1.52-1.14a48.66,48.66,0,0,0,27.35,8c10.64,0,15.2-4.56,15.2-10.63,0-4.94-3-9.12-16.71-16.34-19.38-9.12-27.36-18.61-27.36-34.19,0-17.47,13.68-31.91,37.61-31.91,11.78,0,19.76,1.9,24.31,3.8a3.29,3.29,0,0,1,1.52,2.66v18.61c0,1.14-.76,1.9-1.9,1.52-6.07-3.79-14.81-6.07-23.93-6.07ZM188.46,248.67a86.41,86.41,0,0,0,11,.38c16,0,30.77-5.7,30.77-27,0-17.1-10.64-25.83-28.87-25.83-5.32,0-10.64.38-12.92.38Zm-23.93-72.18c0-.76,1.9-1.52,3-1.52,8.73-.38,21.65-.76,35-.76,37.6,0,52,20.52,52,47.11,0,34.57-25.07,49.38-55.46,49.38-5.32,0-6.84-.38-10.64-.38v52.05c0,1.14-.38,1.52-1.52,1.52H166.05c-1.14,0-1.52-.38-1.52-1.52V176.49Z" transform="translate(-45 -45)"/></svg>