<svg id="Layer_1" data-name="Layer 1" xmlns="http://www.w3.org/2000/svg" viewBox="0 0 410 410"><defs><style>.cls-1{fill:#fff;stroke:#fff;stroke-miterlimit:10;stroke-width:10px;}.cls-2{fill:#00dbfc;}</style></defs><title>react</title><circle class="cls-1" cx="205" cy="205" r="200"/><circle class="cls-2" cx="205" cy="204.95" r="22.78"/><path class="cls-2" d="M364.29,227.59c-7.86-6.63-19-12.43-32.3-17-2.48-.83-5.38-1.66-8.28-2.49.42-2.07.83-3.72,1.24-5.79,6.22-30.65,1.66-54.67-11.59-62.53-6.63-3.73-15.74-3.73-26.09,0-9.52,3.72-20.29,10.35-30.64,19.46a78.5,78.5,0,0,0-6.22,5.8c-1.24-1.25-2.89-2.49-4.14-3.73-23.19-20.71-46.38-29-60-21.12C179.6,143.94,175.05,151.8,173,163c-1.66,9.93-1.25,22.77,1.65,36.44a61.11,61.11,0,0,0,2.07,8.28c-3.31.83-6.62,2.07-9.52,2.9C139.43,220.13,122.87,235,122.87,250c0,7.87,4.55,16.15,13.25,23.19,8.28,7,19.88,13.25,33.13,17.81a35.8,35.8,0,0,0,7,2.07c-.83,2.89-1.24,6.21-2.07,9.11-5.39,28.57-.83,50.52,12,58,3.31,2.07,7.45,2.9,12,2.9a41.21,41.21,0,0,0,14.9-2.9c10.36-3.73,21.12-10.35,31.89-19.88,1.66-1.65,3.73-3.31,5.38-5,2.49,2.08,4.56,4.15,7,6.22C273.6,355.55,289.34,363,301.76,363c4.56,0,8.7-.83,12-2.9,6.63-4.14,11.6-12,13.67-23.19,2.07-10.77,1.65-23.6-1.24-37.68a39.22,39.22,0,0,0-1.66-6.63,14.85,14.85,0,0,0,4.55-1.65c29.82-9.94,48-25.68,48-41.42C377.13,242.49,372.58,234.63,364.29,227.59ZM291,150.15c7.45-2.49,13.25-2.9,17-.83,7.45,4.14,12.42,22,6.62,50.94-.41,1.65-.83,3.31-1.24,5a277.89,277.89,0,0,0-34-5.38,245.63,245.63,0,0,0-21.53-26.92,69.41,69.41,0,0,1,5.8-5.38C273.19,159.26,282.71,153.46,291,150.15Zm-5.39,120.92c-4.14,7-7.86,13.66-12,19.46-7.45.41-15.32.83-23.19.83s-15.73-.42-23.19-.83a232.67,232.67,0,0,1-12.42-19.88A197.17,197.17,0,0,1,204,250c3.32-7,7-13.67,10.77-20.29h0l12.42-19.88c7.46-.41,15.33-.83,23.19-.83s15.74.42,23.19.83c4.15,6.21,8.29,12.84,12.43,19.46,4.14,7,7.87,13.67,11.18,20.29C293.07,257,289.75,264,285.61,271.07Zm16.57-8.28q5,11.79,8.69,22.36c-7.45,1.65-15.32,2.9-23.6,4.14,2.48-4.14,5.38-8.7,7.87-12.84C297.62,271.9,300.11,267.34,302.18,262.79Zm-51.77,57.56c-5-5.39-10.35-11.6-15.32-18.22,5,0,9.94.41,14.91.41,5.38,0,10.35,0,15.32-.41C260.35,308.75,255.38,315,250.41,320.35Zm-37.27-31.06a200.52,200.52,0,0,1-23.6-3.73,163.16,163.16,0,0,1,8.28-22.36c2.49,4.55,4.56,8.7,7,13.25C207.76,281,210.25,285.15,213.14,289.29Zm-7.86-65c-2.49,4.56-5,8.7-7,13.25-3.32-7.45-5.8-14.9-8.29-21.94,7.46-1.66,14.91-2.9,23.19-4.14C210.25,215.58,207.76,220.13,205.28,224.27ZM250,180.79c5,5.39,9.94,11.6,14.91,18.22-5-.41-9.94-.41-15.32-.41-5,0-9.94,0-14.91.41C240.06,192.39,245,186.18,250,180.79Zm44.72,43.48a134,134,0,0,0-7.86-12.83,190.59,190.59,0,0,1,23.19,4.14,179.06,179.06,0,0,1-8.29,21.94A82.74,82.74,0,0,0,294.72,224.27ZM185,197.36c-2.48-12.43-2.89-23.61-1.24-32.3,1.24-7.46,4.14-12.84,7.87-15.33,7.45-4.14,25.26,0,47.21,19.88l3.73,3.73A244.49,244.49,0,0,0,221,200.26a263.57,263.57,0,0,0-33.95,5.38C186.23,202.33,185.81,199.84,185,197.36ZM173,281c-26.92-9.11-39.34-22.37-39.34-31.06,0-8.28,11.59-20.29,36.85-29,2.9-.83,5.8-2.07,8.7-2.9a318.91,318.91,0,0,0,12.42,32.3c-5,11.18-9.52,21.95-12.42,32.72C177.12,282.25,175.05,281.83,173,281Zm25.26,71.64c-2.9,0-5-.42-6.63-1.66-7-4.14-12-19.88-6.63-46.38.42-2.9,1.25-5.38,1.66-8.28a208.41,208.41,0,0,0,34.37,5,246.34,246.34,0,0,0,22,26.91c-1.66,1.66-3.31,2.9-5,4.56C221.84,346.85,207.35,352.65,198.24,352.65Zm117.19-50.94c5.38,27.75,0,45.14-7,49.28s-23.19.41-43.48-17.39a80.33,80.33,0,0,1-6.21-5.8,306.21,306.21,0,0,0,21.53-26.92,261,261,0,0,0,34.37-5.38A32.27,32.27,0,0,0,315.43,301.71ZM325.78,281c-1.24.41-2.9.82-4.14,1.24A272.87,272.87,0,0,0,308.8,250a282.11,282.11,0,0,0,12.43-31.89l7.45,2.49c12,4.14,21.95,9.52,28.57,14.9,5.8,5,9.11,9.94,9.11,14.5C366.36,258.64,353.53,271.9,325.78,281Z" transform="translate(-45 -45)"/></svg>