<svg id="Layer_3" data-name="Layer 3" xmlns="http://www.w3.org/2000/svg" viewBox="0 0 506.25 491.91"><defs><style>.cls-1{fill:#ffa7a6;stroke:#ffa7a6;stroke-linecap:round;stroke-linejoin:round;stroke-width:16px;}</style></defs><title>SakuraFill</title><path class="cls-1" d="M491.31,198.7c-3-2.9-7.7-3.9-12.1-5-6-1.4-12.8-2.9-15.1-9.7-2.2-6.6,2-11.8,5.7-16.4,2.8-3.4,5.6-6.9,6.2-10.9,2.2-15.7-19.5-34.1-31.2-44-7.4-6.2-16.6-9.4-27.4-9.4-23.8,0-50.3,15.2-63,22.5-1.5.9-2.9,1.7-4.1,2.3a153.67,153.67,0,0,0-14.8,9.4c12.6-28.7,18-54.1,15.7-73.6-1.7-14.8-7.9-26.4-18.3-34.5C319,18.8,297.21,7.9,282.41,7.9a19,19,0,0,0-9.1,2c-3.7,2-6.1,6.1-8.5,10-3.2,5.3-6.8,11.3-14,11.3-6.9,0-10.5-5.6-13.7-10.5-2.4-3.7-4.8-7.5-8.5-9.2a19.41,19.41,0,0,0-8.5-1.8c-14.1,0-32.9,11.6-43,17.9-12.8,7.9-20.6,19.7-23.2,34.9-3.9,22.6,3.9,51.7,17.6,80.8-2.4-2.2-4.8-4.4-7.1-6.4-27.7-24-53.5-36.7-74.6-36.7a46.41,46.41,0,0,0-26.5,8c-16.6,11.4-39.9,35.5-37.1,50.8.8,4.1,3.9,7.7,6.9,11.1,4,4.6,8.6,9.9,6.5,16.7-2.1,6.6-8.6,8.3-14.3,9.9-4.2,1.1-8.6,2.3-11.4,5.2-11,11.4-4.3,39-.6,53.9,8.5,34.8,59.2,40.2,80.8,42.5,1.8.2,3.3.4,4.7.5a145.17,145.17,0,0,0,17.4,1.1c-27.1,15.9-46.4,33.2-56,50.4-7.3,13-9.1,26-5.4,38.7,5.8,19.3,21.5,48.9,36.9,50.9a7.57,7.57,0,0,0,1.5.1c3.7,0,7.5-1.6,11.2-3.2s7.4-3.1,11.1-3.1a11.87,11.87,0,0,1,6.8,2.1c5.7,4,5.3,10.7,5,16.6-.2,4.4-.5,8.9,1.4,12.5,7.4,14,35.8,16.1,51.1,17.3,1.4.1,2.8.2,4.2.2,14,0,26.4-5.5,36.8-16.5,15.5-16.3,25.7-43.6,31.5-74.2l.2,1.3c6.6,33,17.6,58.5,31.6,73.7,10.1,10.9,21.9,16.7,35.1,17.1h2.7c23.3,0,51.2-6.8,57.1-19.3,1.8-3.8,1.4-8.5,1-13.1-.5-6.1-1.2-13.1,4.6-17.3a11,11,0,0,1,7-2.2c3.5,0,6.8,1.3,10.4,2.7s6.9,2.7,10.3,2.7a13.55,13.55,0,0,0,2-.2c15.6-2.7,26.4-29.1,32.2-43.2,5.7-13.9,5.1-28-1.7-41.8-10.2-20.6-33.6-39.5-61.8-55a253.75,253.75,0,0,0,30.2,1.9c29.5,0,66.9-6.5,78-37.2C497.91,242.5,502.61,209.4,491.31,198.7Z" transform="translate(0.12 0.1)"/></svg>