<svg id="Layer_3" data-name="Layer 3" xmlns="http://www.w3.org/2000/svg" viewBox="0 0 506.11 491.73"><defs><style>.cls-1{fill:none;stroke:#ffa7a6;stroke-linecap:round;stroke-linejoin:round;stroke-width:16px;}</style></defs><title>SakuraRegular</title><path class="cls-1" d="M491.26,198.75c-3-2.87-7.66-3.93-12.12-5-6-1.37-12.83-2.94-15.08-9.69-2.2-6.58,2-11.78,5.75-16.37,2.75-3.39,5.6-6.9,6.17-10.89,2.24-15.69-19.49-34.08-31.16-44-7.37-6.23-16.56-9.39-27.35-9.39-23.82,0-50.28,15.22-63,22.53-1.54.88-2.92,1.67-4.1,2.33a159.84,159.84,0,0,0-14.77,9.36c12.56-28.72,18-54.1,15.69-73.64-1.74-14.78-7.91-26.4-18.33-34.51C319.05,18.88,297.19,8,282.38,8a18.91,18.91,0,0,0-9.14,2c-3.67,2-6.11,6.07-8.46,10-3.17,5.29-6.76,11.28-14,11.34-6.88,0-10.5-5.59-13.69-10.52-2.37-3.67-4.83-7.47-8.45-9.24a19.16,19.16,0,0,0-8.49-1.8c-14.11,0-32.88,11.61-43,17.85-12.8,7.92-20.6,19.65-23.19,34.86-3.86,22.63,3.94,51.69,17.65,80.85-2.38-2.2-4.76-4.35-7.14-6.42-27.66-24-53.46-36.68-74.63-36.68a46.47,46.47,0,0,0-26.51,8C46.69,119.67,23.4,143.71,26.26,159c.77,4.11,3.89,7.68,6.9,11.14,4,4.65,8.64,9.91,6.5,16.71-2.09,6.61-8.56,8.33-14.27,9.85C21.17,197.84,16.8,199,14,201.9c-11,11.37-4.26,39-.63,53.89,8.51,34.76,59.2,40.16,80.85,42.47,1.77.19,3.34.36,4.68.52a158.49,158.49,0,0,0,17.42,1.1c-27,15.85-46.36,33.2-56,50.36-7.28,13-9.11,26-5.45,38.7,5.8,19.34,21.46,48.94,36.89,50.94a12.62,12.62,0,0,0,1.51.1c3.69,0,7.51-1.64,11.22-3.22s7.37-3.14,11.11-3.14a11.47,11.47,0,0,1,6.79,2.13c5.65,4,5.28,10.71,5,16.61-.23,4.37-.48,8.88,1.41,12.45,7.41,14,35.81,16.11,51.06,17.25,1.4.1,2.81.15,4.19.15,14,0,26.37-5.53,36.76-16.45,15.46-16.27,25.68-43.6,31.52-74.17l.24,1.27c6.64,33,17.58,58.5,31.63,73.73,10.1,10.93,21.92,16.7,35.12,17.14H322c23.26,0,51.19-6.77,57.14-19.31,1.8-3.79,1.38-8.5,1-13.07-.54-6.14-1.16-13.1,4.57-17.34a11.51,11.51,0,0,1,7-2.24c3.48,0,6.82,1.29,10.36,2.66s6.93,2.67,10.29,2.67a11.18,11.18,0,0,0,2-.17c15.62-2.72,26.4-29.07,32.19-43.22,5.69-13.93,5.11-28-1.74-41.84-10.18-20.58-33.58-39.5-61.82-55a256.17,256.17,0,0,0,30.2,1.94h0c29.45,0,66.9-6.46,78-37.19C497.86,242.58,502.57,209.45,491.26,198.75Z" transform="translate(0.03 0)"/></svg>